<svg xmlns="http://www.w3.org/2000/svg" style="display:none" aria-hidden="true">
  <symbol id="sym-resistor" viewBox="0 0 64 64">
    <line x1="4" y1="32" x2="12" y2="32" stroke="currentColor" stroke-width="2" stroke-linecap="round" />
    <polyline points="12 32 18 24 26 40 34 24 42 40 50 24 58 32" fill="none" stroke="currentColor" stroke-width="2" stroke-linecap="round" stroke-linejoin="round" />
    <line x1="58" y1="32" x2="60" y2="32" stroke="currentColor" stroke-width="2" stroke-linecap="round" />
  </symbol>
  <symbol id="sym-capacitor" viewBox="0 0 64 64">
    <line x1="6" y1="32" x2="24" y2="32" stroke="currentColor" stroke-width="2" stroke-linecap="round" />
    <line x1="24" y1="18" x2="24" y2="46" stroke="currentColor" stroke-width="2" stroke-linecap="round" />
    <line x1="40" y1="18" x2="40" y2="46" stroke="currentColor" stroke-width="2" stroke-linecap="round" />
    <line x1="40" y1="32" x2="58" y2="32" stroke="currentColor" stroke-width="2" stroke-linecap="round" />
  </symbol>
  <symbol id="sym-ic" viewBox="0 0 64 64">
    <rect x="16" y="18" width="32" height="28" rx="4" fill="none" stroke="currentColor" stroke-width="2" />
    <line x1="12" y1="22" x2="16" y2="22" stroke="currentColor" stroke-width="2" stroke-linecap="round" />
    <line x1="12" y1="30" x2="16" y2="30" stroke="currentColor" stroke-width="2" stroke-linecap="round" />
    <line x1="12" y1="38" x2="16" y2="38" stroke="currentColor" stroke-width="2" stroke-linecap="round" />
    <line x1="48" y1="22" x2="52" y2="22" stroke="currentColor" stroke-width="2" stroke-linecap="round" />
    <line x1="48" y1="30" x2="52" y2="30" stroke="currentColor" stroke-width="2" stroke-linecap="round" />
    <line x1="48" y1="38" x2="52" y2="38" stroke="currentColor" stroke-width="2" stroke-linecap="round" />
  </symbol>
  <symbol id="sym-wire" viewBox="0 0 64 64">
    <path d="M6 40 C18 24, 30 52, 42 36 S58 24, 58 24" fill="none" stroke="currentColor" stroke-width="2" stroke-linecap="round" stroke-linejoin="round" />
  </symbol>
  <symbol id="sym-fuse" viewBox="0 0 64 64">
    <line x1="6" y1="32" x2="20" y2="32" stroke="currentColor" stroke-width="2" stroke-linecap="round" />
    <rect x="20" y="24" width="24" height="16" rx="3" fill="none" stroke="currentColor" stroke-width="2" />
    <line x1="44" y1="32" x2="58" y2="32" stroke="currentColor" stroke-width="2" stroke-linecap="round" />
  </symbol>
  <symbol id="sym-battery" viewBox="0 0 64 64">
    <line x1="10" y1="32" x2="24" y2="32" stroke="currentColor" stroke-width="2" stroke-linecap="round" />
    <line x1="24" y1="20" x2="24" y2="44" stroke="currentColor" stroke-width="2" stroke-linecap="round" />
    <line x1="40" y1="24" x2="40" y2="40" stroke="currentColor" stroke-width="2" stroke-linecap="round" />
    <line x1="40" y1="32" x2="54" y2="32" stroke="currentColor" stroke-width="2" stroke-linecap="round" />
    <line x1="56" y1="26" x2="56" y2="38" stroke="currentColor" stroke-width="2" stroke-linecap="round" />
  </symbol>
  <symbol id="sym-motor" viewBox="0 0 64 64">
    <circle cx="32" cy="32" r="14" fill="none" stroke="currentColor" stroke-width="2" />
    <line x1="32" y1="18" x2="32" y2="8" stroke="currentColor" stroke-width="2" stroke-linecap="round" />
    <line x1="32" y1="56" x2="32" y2="46" stroke="currentColor" stroke-width="2" stroke-linecap="round" />
    <line x1="18" y1="32" x2="8" y2="32" stroke="currentColor" stroke-width="2" stroke-linecap="round" />
    <line x1="56" y1="32" x2="46" y2="32" stroke="currentColor" stroke-width="2" stroke-linecap="round" />
    <path d="M38 26 L44 20 M26 38 L20 44" fill="none" stroke="currentColor" stroke-width="2" stroke-linecap="round" />
  </symbol>
  <symbol id="sym-generic" viewBox="0 0 64 64">
    <polygon points="32 10 54 32 32 54 10 32" fill="none" stroke="currentColor" stroke-width="2" stroke-linejoin="round" />
  </symbol>
</svg>
